<svg width="147" height="201" viewBox="0 0 147 201" fill="none" xmlns="http://www.w3.org/2000/svg">
<path d="M120.004 94.5429C118.284 93.6832 118.284 91.3905 119.717 90.2442C132.611 80.5004 140.061 67.0311 140.061 52.9886C140.061 36.0803 134.044 22.611 122.583 13.727C111.694 5.12957 93.6421 0.25769 72.725 0.25769H3.09697C1.66429 0.25769 0.804688 1.11743 0.804688 2.55034V197.712C0.804688 199.145 1.66429 200.292 3.09697 200.292H64.9886C96.794 200.292 110.548 198.859 128.886 182.81C140.061 173.639 146.938 156.731 146.938 139.25C147.225 118.043 138.055 102.854 120.004 94.5429Z" fill="#1C5491"/>
</svg>
