<svg width="991" height="227" viewBox="0 0 991 227" fill="none" xmlns="http://www.w3.org/2000/svg">
<g filter="url(#filter0_d)">
<path d="M647.181 0.687988H696.717C698.445 0.687988 699.597 2.416 699.021 4.144L642.861 120.496C642.573 120.784 642.573 121.36 642.573 121.648V199.408C642.573 200.56 641.421 201.712 639.981 201.712H593.613C592.461 201.712 591.309 200.56 591.309 199.408V121.648C591.309 121.36 591.309 120.784 591.021 120.496L534.285 4.144C533.709 2.416 534.861 0.687988 536.589 0.687988H586.701C587.565 0.687988 588.429 1.264 589.005 2.128L614.637 62.896C615.501 64.912 618.093 64.912 618.957 62.896L644.877 2.128C645.165 1.264 646.029 0.687988 647.181 0.687988Z" fill="#FAFAFA"/>
<path d="M939.717 0.687988H983.781C985.221 0.687988 986.085 1.55199 986.085 2.99199V199.408C986.085 200.56 985.221 201.712 983.781 201.712H943.173C942.309 201.712 941.445 201.424 941.157 200.56L872.901 105.232C871.461 103.216 868.581 104.08 868.581 106.672L869.445 199.12C869.445 200.56 868.293 201.712 866.853 201.712H822.789C821.349 201.712 820.485 200.56 820.485 199.408V2.99199C820.485 1.55199 821.349 0.687988 822.789 0.687988H863.109C863.973 0.687988 864.549 0.976002 865.125 1.55199L933.669 104.656C935.109 106.672 937.989 105.808 937.989 103.216L937.125 2.99199C937.125 1.83999 938.277 0.687988 939.717 0.687988Z" fill="#FAFAFA"/>
<path d="M124.617 96.0159C122.889 95.1519 122.889 92.8479 124.329 91.6959C137.289 81.9039 144.777 68.3679 144.777 54.2559C144.777 37.2639 138.729 23.7279 127.209 14.7999C116.265 6.15991 98.1206 1.26391 77.0966 1.26391H7.1126C5.67259 1.26391 4.80859 2.12791 4.80859 3.56791V199.696C4.80859 201.136 5.67259 202.288 7.1126 202.288H69.3206C101.289 202.288 115.113 200.848 133.545 184.72C144.777 175.504 151.689 158.512 151.689 140.944C151.977 119.632 142.761 104.368 124.617 96.0159Z" fill="#1C5491"/>
<path d="M391.878 132.016C391.59 131.152 391.878 129.712 393.03 129.136C396.198 127.12 399.654 124.528 403.398 121.36C415.782 110.416 424.134 89.3919 424.134 68.3679C424.134 47.0559 415.782 27.4719 401.094 15.0879C390.15 5.8719 376.326 0.399902 340.326 0.399902H278.406C276.966 0.399902 276.102 1.26391 276.102 2.70391V198.832C276.102 200.272 276.966 201.424 278.406 201.424H324.774C326.214 201.424 327.078 200.272 327.078 198.832V141.232C327.078 139.792 328.23 138.928 329.67 138.928H337.734C338.598 138.928 339.462 139.504 339.75 140.368L366.246 200.56C366.534 201.424 367.398 202 368.55 202H418.662C420.39 202 421.542 200.272 420.966 198.544L391.878 132.016Z" fill="#1C5491"/>
</g>
<defs>
<filter id="filter0_d" x="0.808594" y="0.399902" width="989.276" height="225.888" filterUnits="userSpaceOnUse" color-interpolation-filters="sRGB">
<feFlood flood-opacity="0" result="BackgroundImageFix"/>
<feColorMatrix in="SourceAlpha" type="matrix" values="0 0 0 0 0 0 0 0 0 0 0 0 0 0 0 0 0 0 127 0" result="hardAlpha"/>
<feOffset dy="20"/>
<feGaussianBlur stdDeviation="2"/>
<feComposite in2="hardAlpha" operator="out"/>
<feColorMatrix type="matrix" values="0 0 0 0 0 0 0 0 0 0 0 0 0 0 0 0 0 0 0.25 0"/>
<feBlend mode="normal" in2="BackgroundImageFix" result="effect1_dropShadow"/>
<feBlend mode="normal" in="SourceGraphic" in2="effect1_dropShadow" result="shape"/>
</filter>
</defs>
</svg>
